<svg width="16" height="16" viewBox="0 0 16 16" fill="none" xmlns="http://www.w3.org/2000/svg">
<path d="M5.5 9C5.10218 9 4.72064 9.15804 4.43934 9.43934C4.15804 9.72064 4 10.1022 4 10.5V12H2V14H14V12H12V10.5C12 10.1022 11.842 9.72064 11.5607 9.43934C11.2794 9.15804 10.8978 9 10.5 9H5.5Z" fill="#EA9A3B"/>
<path d="M10.1329 6.055L3 6.05482L3 4.05482L10.1329 4.055L9.16788 2.61L10.8319 1.5L12.8319 4.5C12.9415 4.66433 13 4.85745 13 5.055C13 5.25255 12.9415 5.44567 12.8319 5.61L10.8319 8.61L9.16788 7.5L10.1329 6.055Z" fill="#EA9A3B"/>
</svg>
